<?xml version="1.0" encoding="UTF-8" standalone="no"?>
<svg
   width="144"
   height="144"
   viewBox="0 0 144 144"
   fill="none"
   version="1.1"
   id="svg2"
   sodipodi:docname="HackMD.light.svg"
   inkscape:version="1.3.2 (091e20e, 2023-11-25, custom)"
   inkscape:export-filename="HackMD.light.png"
   inkscape:export-xdpi="32"
   inkscape:export-ydpi="32"
   xmlns:inkscape="http://www.inkscape.org/namespaces/inkscape"
   xmlns:sodipodi="http://sodipodi.sourceforge.net/DTD/sodipodi-0.dtd"
   xmlns="http://www.w3.org/2000/svg"
   xmlns:svg="http://www.w3.org/2000/svg">
  <sodipodi:namedview
     id="namedview2"
     pagecolor="#ffffff"
     bordercolor="#000000"
     borderopacity="0.25"
     inkscape:showpageshadow="2"
     inkscape:pageopacity="0.0"
     inkscape:pagecheckerboard="0"
     inkscape:deskcolor="#d1d1d1"
     inkscape:zoom="5.2013889"
     inkscape:cx="72.192256"
     inkscape:cy="67.77036"
     inkscape:window-width="1920"
     inkscape:window-height="1166"
     inkscape:window-x="-11"
     inkscape:window-y="-11"
     inkscape:window-maximized="1"
     inkscape:current-layer="svg2" />
  <g
     clip-path="url(#clip0_5623_9690)"
     id="g1"
     style="fill:#000000;fill-opacity:1"
     transform="translate(0,4.9032894)">
    <path
       fill-rule="evenodd"
       clip-rule="evenodd"
       d="m 143.582,73.0165 c 0.034,-5.7227 -1.736,-8.9297 -6.209,-11.1621 L 110.017,48.2066 c -1.082,-0.541 -2.188,-1.0175 -3.308,-1.4296 l -0.177,-18.512 c -0.122,-5.4436 -1.761,-8.9082 -6.234,-11.1406 L 72.9413,3.47659 C 63.4043,-1.28448 52.2075,-1.1471 42.7845,3.83721 L 7.63107,22.435 c -3.8942,2.0607 -5.90465,5.8816 -5.99335,9.7625 L 0.00316698,60.2187 C -0.0644114,62.8633 0.94504,65.6967 3.46233,67.2079 l 29.26987,17.546 c 1.7359,1.0432 3.5437,1.9104 5.3978,2.6059 L 37.2388,105.06 c -0.1098,2.804 0.773,5.371 3.2945,6.878 l 29.2699,17.546 c 10.3141,6.182 23.0949,6.285 33.5018,0.266 l 37.278,-21.56 c 2.572,-1.485 3.421,-4.083 3.417,-6.912 L 143.573,73.0165 Z M 37.26,49.516 C 31.0512,46.6482 14.1355,37.6541 12.8346,36.9285 9.92029,35.2929 9.78514,33.5584 9.93719,31.472 10.0048,30.5146 10.3089,29.5744 10.841,28.7502 c 0.5322,-0.8286 1.2925,-1.537 2.2808,-2.0393 1.398,-0.7083 33.4724,-17.03076 33.4724,-17.03076 6.2933,-3.1812 13.5917,-3.59334 20.151,-1.23642 0.9377,0.33487 1.8585,0.72983 2.7623,1.18061 5.968,2.97517 17.9083,8.92537 23.8721,11.91337 0.0126,0.0086 0.0422,0.0215 0.0591,0.0301 2.4751,1.2579 3.5056,3.8552 3.079,6.2164 -0.2914,1.6314 -1.1319,3.0567 -2.9692,4.0656 -0.4646,0.2576 -26.1064,14.0814 -31.2127,16.8247 -7.7884,4.1901 -17.034,4.5507 -25.0716,0.8372 z m 96.227,23.7924 c -0.249,1.743 -1.225,3.4002 -2.952,4.4262 L 98.6591,96.6887 c -7.9531,4.7263 -17.752,4.8983 -25.8614,0.4551 L 49.4072,84.316 C 45.1624,81.9891 45.1371,75.807 49.3649,73.4415 L 81.0127,55.7539 c 7.3534,-4.1086 16.1893,-4.422 23.8043,-0.8372 l 25.203,11.8576 c 2.154,1.0132 3.336,3.0138 3.51,5.0959 0.038,0.4808 0.025,0.966 -0.043,1.4425 z"
       fill="url(#paint0_linear_5623_9690)"
       id="path1"
       style="fill:#000000;fill-opacity:1" />
  </g>
  <defs
     id="defs2">
    <linearGradient
       id="paint0_linear_5623_9690"
       x1="31.7381"
       y1="11.471"
       x2="104.668"
       y2="127.496"
       gradientUnits="userSpaceOnUse">
      <stop
         stop-color="#9894F9"
         id="stop1" />
      <stop
         offset="1"
         stop-color="#453AFF"
         id="stop2" />
    </linearGradient>
    <clipPath
       id="clip0_5623_9690">
      <rect
         width="144"
         height="135"
         fill="#ffffff"
         id="rect2"
         x="0"
         y="0" />
    </clipPath>
  </defs>
</svg>
